<svg xmlns="http://www.w3.org/2000/svg" viewBox="0 0 320 320" role="img" aria-label="Annas VardagsGl‰dje AB">
  <circle cx="160" cy="160" r="150" fill="#faf7f4" stroke="#d9a7b3" stroke-width="2"/>
  <g fill="#e8a0b0" opacity="0.9">
    <circle cx="78" cy="198" r="11"/>
    <circle cx="92" cy="182" r="9"/>
    <circle cx="108" cy="196" r="10"/>
    <circle cx="212" cy="198" r="11"/>
    <circle cx="228" cy="182" r="9"/>
    <circle cx="244" cy="196" r="10"/>
    <circle cx="150" cy="228" r="10"/>
    <circle cx="170" cy="238" r="9"/>
  </g>
  <g stroke="#7a9a7f" stroke-width="2.2" fill="none" stroke-linecap="round">
    <path d="M55 210 C90 170, 120 150, 160 145"/>
    <path d="M265 210 C230 170, 200 150, 160 145"/>
    <path d="M120 250 C140 220, 150 200, 160 145"/>
    <path d="M200 250 C180 220, 170 200, 160 145"/>
  </g>
  <text x="160" y="118" text-anchor="middle" font-family="Georgia, serif" font-size="42" fill="#d49aaa" font-style="italic">Annas</text>
  <text x="160" y="152" text-anchor="middle" font-family="Georgia, serif" font-size="22" fill="#2f3a34" letter-spacing="1">VardagsGl‰dje</text>
  <line x1="118" y1="168" x2="202" y2="168" stroke="#d9a7b3" stroke-width="1.2"/>
  <text x="160" y="188" text-anchor="middle" font-family="Georgia, serif" font-size="14" fill="#d49aaa">AB</text>
</svg>
